<svg fill="#FFFFFF" height="24" viewBox="0 0 24 24" width="24" xmlns="http://www.w3.org/2000/svg"><g clip-rule="evenodd" fill="#FFFFFF" fill-rule="evenodd"><path d="m10.4304 7.35351c.3004-.30041.7875-.30041 1.0879 0l3.3773 3.37729c.701.701.701 1.8374 0 2.5384l-3.3773 3.3773c-.3004.3004-.7875.3004-1.0879 0s-.3004-.7875 0-1.0879l3.3774-3.3773c.1001-.1001.1001-.2625 0-.3626l-3.3774-3.37734c-.3004-.3004-.3004-.78745 0-1.08785z"/><path d="m12 3.53846c-2.16918 0-5.13385.19907-6.98505.34249-.60879.04716-1.08684.52521-1.134 1.134-.14342 1.8512-.34249 4.81587-.34249 6.98505 0 2.1692.19907 5.1338.34249 6.985.04716.6088.52521 1.0869 1.134 1.1341 1.8512.1434 4.81587.3424 6.98505.3424 2.1692 0 5.1338-.199 6.985-.3424.6088-.0472 1.0869-.5253 1.1341-1.1341.1434-1.8512.3424-4.8158.3424-6.985 0-2.16918-.199-5.13385-.3424-6.98505-.0472-.60879-.5253-1.08684-1.1341-1.134-1.8512-.14342-4.8158-.34249-6.985-.34249zm-7.10388-1.19138c1.85207-.14348 4.86935-.34708 7.10388-.34708 2.2345 0 5.2518.2036 7.1039.34708 1.3647.10573 2.4433 1.18433 2.549 2.54904.1435 1.85207.3471 4.86935.3471 7.10388 0 2.2345-.2036 5.2518-.3471 7.1039-.1057 1.3647-1.1843 2.4433-2.549 2.549-1.8521.1435-4.8694.3471-7.1039.3471-2.23453 0-5.25181-.2036-7.10388-.3471-1.36471-.1057-2.44331-1.1843-2.54904-2.549-.14348-1.8521-.34708-4.8694-.34708-7.1039 0-2.23453.2036-5.25181.34708-7.10388.10573-1.36471 1.18433-2.44331 2.54904-2.54904z"/></g></svg>