<?xml version="1.0" encoding="UTF-8"?>
<svg width="285px" height="121px" viewBox="0 0 285 121" version="1.1" xmlns="http://www.w3.org/2000/svg" xmlns:xlink="http://www.w3.org/1999/xlink">
    <!-- Generator: Sketch 52.6 (67491) - http://www.bohemiancoding.com/sketch -->
    <title>noun-view-description-57054</title>
    <desc>Created with Sketch.</desc>
    <g id="Page-1" stroke="none" stroke-width="1" fill="none" fill-rule="evenodd">
        <g id="noun-view-description-57054" fill="#FFFFFF">
            <path d="M104.73,19.38 L9.046,19.38 C4.4054,19.38 0.6476,15.6183 0.6476,10.9816 C0.6476,6.3449 4.4054,2.5832 9.046,2.5832 L104.726,2.5832 C109.3666,2.5832 113.1244,6.3449 113.1244,10.9816 C113.128306,15.6183 109.3666,19.38 104.7299,19.38 L104.73,19.38 Z" id="Path"></path>
            <path d="M76.73,52.98 L9.046,52.98 C4.4054,52.98 0.6476,49.2183 0.6476,44.5816 C0.6476,39.9449 4.4054,36.1832 9.046,36.1832 L76.726,36.1832 C81.3666,36.1832 85.1244,39.9449 85.1244,44.5816 C85.128306,49.2144 81.3666,52.98 76.7299,52.98 L76.73,52.98 Z" id="Path"></path>
            <path d="M76.73,86.57 L9.046,86.57 C4.4054,86.57 0.6476,82.8083 0.6476,78.1716 C0.6476,73.5349 4.4054,69.7732 9.046,69.7732 L76.726,69.7732 C81.3666,69.7732 85.1244,73.5349 85.1244,78.1716 C85.128306,82.8083 81.3666,86.57 76.7299,86.57 L76.73,86.57 Z" id="Path"></path>
            <path d="M99.9,120.18 L9.045,120.18 C4.4044,120.18 0.6466,116.4183 0.6466,111.7816 C0.6466,107.1449 4.4044,103.3832 9.045,103.3832 L99.9,103.3832 C104.5406,103.3832 108.2984,107.1449 108.2984,111.7816 C108.302307,116.4144 104.5367,120.18 99.9,120.18 Z" id="Path"></path>
            <path d="M196.39,120.18 C147.249,120.18 111.347,67.137 109.843,64.887 C107.9875,62.1058 107.968,58.4847 109.768781,55.6761 C111.225781,53.4183 146.034781,0.2701 196.381781,0.2701 C247.838781,0.2701 281.647781,53.5161 283.065781,55.7781 C284.792381,58.5398 284.761081,62.0515 282.991562,64.782 C281.538462,67.0476 246.628562,120.18 196.389562,120.18 L196.39,120.18 Z M127.206,60.164 C136.4833,72.141 163.811,103.387 196.39,103.387 C229.941,103.387 256.718,72.059 265.671,60.172 C256.9132,48.293 230.628,17.078 196.39,17.078 C163.007,17.070187 136.261,48.18 127.206,60.164 Z" id="Shape" fill-rule="nonzero"></path>
            <path d="M195.4,91.04 C178.146,91.04 164.107,77.001 164.107,59.747 C164.107,42.493 178.146,28.454 195.4,28.454 C212.658,28.454 226.693,42.493 226.693,59.747 C226.693,77.001 212.662,91.04 195.4,91.04 Z M195.4,45.255 C187.4078,45.255 180.908,51.755 180.908,59.747 C180.908,67.739 187.408,74.239 195.4,74.239 C203.3922,74.239 209.892,67.739 209.892,59.747 C209.895906,51.7587 203.3998,45.255 195.4,45.255 Z" id="Shape" fill-rule="nonzero"></path>
        </g>
    </g>
</svg>