<?xml version="1.0" encoding="UTF-8"?>
<svg width="268px" height="52px" viewBox="0 0 268 52" version="1.1" xmlns="http://www.w3.org/2000/svg" xmlns:xlink="http://www.w3.org/1999/xlink">
    <!-- Generator: Sketch 52.6 (67491) - http://www.bohemiancoding.com/sketch -->
    <title>powered by</title>
    <desc>Created with Sketch.</desc>
    <defs>
        <linearGradient x1="99.3194264%" y1="33.149863%" x2="0%" y2="33.149863%" id="linearGradient-1">
            <stop stop-color="#74C6FF" offset="0%"></stop>
            <stop stop-color="#9C8F60" offset="100%"></stop>
        </linearGradient>
        <path d="M87.2361584,37.7015707 C87.9503233,37.7015707 88.5518281,37.4877857 89.040691,37.0602094 C89.5295538,36.6326331 89.7739816,36.1047152 89.7739816,35.4764398 L89.7739816,34.5209424 L87.389193,34.6780105 C86.7260399,34.7303668 86.2201807,34.8874332 85.8716002,35.1492147 C85.5230198,35.4109961 85.3487322,35.7600327 85.3487322,36.1963351 C85.3487322,36.6588156 85.5208943,37.0253041 85.8652238,37.2958115 C86.2095533,37.566319 86.6665269,37.7015707 87.2361584,37.7015707 Z M85.5910369,40.934555 C84.2222209,40.934555 83.1148569,40.5309813 82.2689116,39.723822 C81.4229663,38.9166626 81,37.8499194 81,36.5235602 C81,35.197201 81.4867301,34.1566355 82.4602048,33.4018325 C83.4336795,32.6470294 84.8386078,32.2129151 86.6750317,32.0994764 L89.7739816,31.9162304 L89.7739816,30.7774869 C89.7739816,30.2801022 89.6018194,29.8939804 89.2574899,29.6191099 C88.9131605,29.3442395 88.4306813,29.2068063 87.810038,29.2068063 C86.6112613,29.2068063 85.8630998,29.5994725 85.5655311,30.3848168 L81.5101152,30.3848168 C81.6121388,28.9711971 82.2497764,27.8542798 83.4230472,27.0340314 C84.5963181,26.213783 86.1436521,25.8036649 88.0650956,25.8036649 C90.0205471,25.8036649 91.5338737,26.2399607 92.605121,27.1125654 C93.6763683,27.9851702 94.2119839,29.2067984 94.2119839,30.7774869 L94.2119839,40.7120419 L89.8249931,40.7120419 L89.8249931,38.9057592 L89.5826884,38.9057592 C89.2681158,39.5253085 88.7495038,40.0183228 88.026837,40.3848168 C87.3041702,40.7513107 86.4922449,40.934555 85.5910369,40.934555 Z M117.162461,26.1439791 L113.489631,40.7120419 L108.630784,40.7120419 L106.411783,31.117801 L106.169478,31.117801 L103.975983,40.7120419 L99.1936527,40.7120419 L95.4953174,26.1439791 L100.060849,26.1439791 L101.833499,36.1308901 L102.075804,36.1308901 L104.218288,26.1439791 L108.516008,26.1439791 L110.683998,36.1308901 L110.926303,36.1308901 L112.698953,26.1439791 L117.162461,26.1439791 Z M118.190737,30.5287958 C118.190737,29.080272 118.751858,27.9306325 119.874117,27.0798429 C120.996376,26.2290533 122.513954,25.8036649 124.426895,25.8036649 C126.390849,25.8036649 127.90205,26.1854238 128.960544,26.9489529 C130.019039,27.712482 130.590787,28.8272178 130.675807,30.2931937 L126.569379,30.2931937 C126.501363,29.8656174 126.284567,29.5318511 125.918982,29.2918848 C125.553398,29.0519185 125.068793,28.9319372 124.465154,28.9319372 C123.878519,28.9319372 123.40029,29.0519185 123.030455,29.2918848 C122.66062,29.5318511 122.475705,29.8481656 122.475705,30.2408377 C122.475705,30.5462493 122.605358,30.7971194 122.864667,30.9934555 C123.123977,31.1897916 123.538442,31.3490395 124.108073,31.4712042 L127.041236,32.0863874 C128.44406,32.3917991 129.462154,32.8608171 130.095551,33.4934555 C130.728947,34.1260939 131.04564,34.9921411 131.04564,36.091623 C131.04564,37.6012292 130.450512,38.8054056 129.260237,39.7041885 C128.069962,40.6029713 126.480119,41.052356 124.49066,41.052356 C122.458691,41.052356 120.875224,40.6662342 119.740212,39.8939791 C118.6052,39.1217239 117.973939,38.0026251 117.846409,36.5366492 L122.195141,36.5366492 C122.433196,37.4616102 123.219616,37.9240838 124.554424,37.9240838 C125.175067,37.9240838 125.670299,37.8062839 126.040135,37.5706806 C126.40997,37.3350774 126.594885,37.0209444 126.594885,36.6282723 C126.594885,36.3228606 126.477985,36.0785349 126.244181,35.895288 C126.010377,35.712041 125.608665,35.5593374 125.039034,35.4371728 L122.399187,34.8612565 C119.59354,34.2504332 118.190737,32.8062941 118.190737,30.5287958 Z M139.274586,40.7120419 L139.274586,21 L140.945213,21 L140.945213,40.7120419 L139.274586,40.7120419 Z M148.719763,39.4293194 C149.952547,39.4293194 150.983395,39.0475605 151.812336,38.2840314 C152.641278,37.5205023 153.055742,36.5802848 153.055742,35.4633508 L153.055742,33.8141361 L148.987573,34.1151832 C146.683541,34.2809781 145.531543,35.1710216 145.531543,36.7853403 C145.531543,37.5881366 145.829107,38.2294915 146.424244,38.7094241 C147.019382,39.1893567 147.784547,39.4293194 148.719763,39.4293194 Z M148.439199,40.947644 C147.078885,40.947644 145.967271,40.5702481 145.104321,39.815445 C144.241372,39.060642 143.809904,38.0593431 143.809904,36.8115183 C143.809904,35.5898717 144.234996,34.6278395 145.085192,33.9253927 C145.935388,33.2229459 147.159652,32.8150093 148.758021,32.7015707 L153.055742,32.4136126 L153.055742,31.052356 C153.055742,30.0401346 152.764554,29.263528 152.18217,28.7225131 C151.599785,28.1814982 150.751727,27.9109948 149.63797,27.9109948 C148.694252,27.9109948 147.901456,28.1051464 147.259558,28.4934555 C146.61766,28.8817646 146.215948,29.416227 146.054411,30.0968586 L144.358278,30.0968586 C144.519815,28.9799246 145.087313,28.0811552 146.060787,27.4005236 C147.034262,26.7198919 148.243648,26.3795812 149.688982,26.3795812 C151.295853,26.3795812 152.539246,26.7875177 153.419199,27.6034031 C154.299152,28.4192885 154.739122,29.5645651 154.739122,31.039267 L154.739122,40.7120419 L153.132259,40.7120419 L153.132259,38.2905759 L152.979225,38.2905759 C152.562629,39.1282764 151.954747,39.7805387 151.155563,40.2473822 C150.356378,40.7142257 149.450933,40.947644 148.439199,40.947644 Z M158.190445,40.7120419 L158.190445,26.6151832 L159.784555,26.6151832 L159.784555,29.1544503 L159.950343,29.1544503 C160.247912,28.2905716 160.747394,27.6121316 161.448806,27.1191099 C162.150218,26.6260883 162.972771,26.3795812 163.916489,26.3795812 C164.860207,26.3795812 165.670006,26.6260883 166.345912,27.1191099 C167.021818,27.6121316 167.508548,28.2905716 167.806117,29.1544503 L167.971905,29.1544503 C168.328987,28.2992976 168.887983,27.6230391 169.648908,27.1256545 C170.409834,26.6282698 171.279147,26.3795812 172.256872,26.3795812 C173.63419,26.3795812 174.703296,26.7875177 175.464222,27.6034031 C176.225147,28.4192885 176.605605,29.573291 176.605605,31.065445 L176.605605,40.7120419 L174.934977,40.7120419 L174.934977,31.4581152 C174.934977,30.306277 174.665044,29.4293224 174.125169,28.8272251 C173.585295,28.2251279 172.796749,27.9240838 171.75951,27.9240838 C170.713769,27.9240838 169.863585,28.2883908 169.208934,29.0170157 C168.554283,29.7456406 168.226962,30.6640433 168.226962,31.7722513 L168.226962,40.7120419 L166.556335,40.7120419 L166.556335,31.2748691 C166.556335,30.2626476 166.267272,29.4511374 165.689139,28.8403141 C165.111006,28.2294908 164.34584,27.9240838 163.393621,27.9240838 C162.398891,27.9240838 161.56146,28.3254759 160.881303,29.1282723 C160.201146,29.9310686 159.861073,30.9083712 159.861073,32.0602094 L159.861073,40.7120419 L158.190445,40.7120419 Z M186.599155,40.947644 C185.544912,40.947644 184.601208,40.6771406 183.768016,40.1361257 C182.934823,39.5951107 182.31419,38.8490449 181.906095,37.8979058 L181.740308,37.8979058 L181.740308,40.7120419 L180.146198,40.7120419 L180.146198,21 L181.816825,21 L181.816825,29.3507853 L181.96986,29.3507853 C182.352448,28.4345504 182.960329,27.7102993 183.793522,27.1780105 C184.626714,26.6457216 185.561916,26.3795812 186.599155,26.3795812 C188.342058,26.3795812 189.740609,27.0427508 190.794853,28.3691099 C191.849096,29.6954691 192.37621,31.4581042 192.37621,33.6570681 C192.37621,35.8473059 191.846971,37.609941 190.788476,38.9450262 C189.729982,40.2801114 188.333556,40.947644 186.599155,40.947644 Z M189.468553,29.4685864 C188.677871,28.4389128 187.60664,27.9240838 186.254827,27.9240838 C184.903015,27.9240838 183.819031,28.4454573 183.002843,29.4882199 C182.186655,30.5309825 181.778566,31.9205847 181.778566,33.6570681 C181.778566,35.3935514 182.186655,36.7831536 183.002843,37.8259162 C183.819031,38.8686789 184.903015,39.3900524 186.254827,39.3900524 C187.60664,39.3900524 188.677871,38.8730418 189.468553,37.8390052 C190.259236,36.8049687 190.654571,35.4066406 190.654571,33.6439791 C190.654571,31.8900436 190.259236,30.4982599 189.468553,29.4685864 Z M200.342053,40.947644 C198.590648,40.947644 197.183595,40.2822929 196.120849,38.9515707 C195.058104,37.6208485 194.526739,35.8603949 194.526739,33.6701571 C194.526739,31.4886453 195.060229,29.7281917 196.127226,28.3887435 C197.194222,27.0492952 198.59915,26.3795812 200.342053,26.3795812 C201.387794,26.3795812 202.322996,26.6457216 203.147686,27.1780105 C203.972377,27.7102993 204.580258,28.4389134 204.971348,29.3638743 L205.124383,29.3638743 L205.124383,21 L206.79501,21 L206.79501,40.7120419 L205.188147,40.7120419 L205.188147,37.8979058 L205.035113,37.8979058 C204.627018,38.8403188 204.004259,39.5842032 203.166816,40.1295812 C202.329372,40.6749591 201.387794,40.947644 200.342053,40.947644 Z M200.699133,27.9240838 C199.338819,27.9240838 198.256961,28.4432758 197.453525,29.4816754 C196.65009,30.520075 196.248378,31.9118586 196.248378,33.6570681 C196.248378,35.4110035 196.65009,36.8049687 197.453525,37.8390052 C198.256961,38.8730418 199.338819,39.3900524 200.699133,39.3900524 C202.050945,39.3900524 203.130678,38.8708603 203.938365,37.8324607 C204.746051,36.7940611 205.149889,35.4022775 205.149889,33.6570681 C205.149889,31.9293107 204.743926,30.5418901 203.931989,29.4947644 C203.120051,28.4476387 202.042443,27.9240838 200.699133,27.9240838 Z M214.56956,39.4293194 C215.802344,39.4293194 216.833192,39.0475605 217.662133,38.2840314 C218.491074,37.5205023 218.905539,36.5802848 218.905539,35.4633508 L218.905539,33.8141361 L214.83737,34.1151832 C212.533338,34.2809781 211.38134,35.1710216 211.38134,36.7853403 C211.38134,37.5881366 211.678904,38.2294915 212.274041,38.7094241 C212.869179,39.1893567 213.634344,39.4293194 214.56956,39.4293194 Z M214.288996,40.947644 C212.928682,40.947644 211.817067,40.5702481 210.954118,39.815445 C210.091169,39.060642 209.659701,38.0593431 209.659701,36.8115183 C209.659701,35.5898717 210.084793,34.6278395 210.934989,33.9253927 C211.785185,33.2229459 213.009449,32.8150093 214.607818,32.7015707 L218.905539,32.4136126 L218.905539,31.052356 C218.905539,30.0401346 218.614351,29.263528 218.031967,28.7225131 C217.449582,28.1814982 216.601524,27.9109948 215.487767,27.9109948 C214.544049,27.9109948 213.751253,28.1051464 213.109355,28.4934555 C212.467457,28.8817646 212.065745,29.416227 211.904208,30.0968586 L210.208075,30.0968586 C210.369612,28.9799246 210.937109,28.0811552 211.910584,27.4005236 C212.884059,26.7198919 214.093445,26.3795812 215.538779,26.3795812 C217.14565,26.3795812 218.389043,26.7875177 219.268996,27.6034031 C220.148949,28.4192885 220.588919,29.5645651 220.588919,31.039267 L220.588919,40.7120419 L218.982056,40.7120419 L218.982056,38.2905759 L218.829022,38.2905759 C218.412425,39.1282764 217.804544,39.7805387 217.00536,40.2473822 C216.206175,40.7142257 215.30073,40.947644 214.288996,40.947644 Z M233.732431,28.8534031 C232.797215,28.8534031 232.046928,29.2264361 231.481548,29.9725131 C230.916167,30.7185901 230.633481,31.7068001 230.633481,32.9371728 C230.633481,34.1762715 230.914042,35.1623 231.475171,35.895288 C232.036301,36.6282759 232.784462,36.9947644 233.719678,36.9947644 C234.663396,36.9947644 235.415809,36.61955 235.976938,35.8691099 C236.538068,35.1186699 236.818628,34.1195525 236.818628,32.8717277 C236.818628,31.6413551 236.540193,30.6640525 235.983315,29.9397906 C235.426436,29.2155287 234.676149,28.8534031 233.732431,28.8534031 Z M234.140523,21.9424084 C236.121481,21.9424084 237.887737,22.3525264 239.439345,23.1727749 C240.990953,23.9930233 242.196088,25.1426628 243.054787,26.6217277 C243.913485,28.1007927 244.342828,29.787076 244.342828,31.6806283 C244.342828,33.7923317 243.943241,35.4589817 243.144057,36.6806283 C242.344872,37.9022749 241.252387,38.513089 239.866567,38.513089 C239.075884,38.513089 238.414866,38.2905781 237.883494,37.8455497 C237.352121,37.4005213 237.052431,36.8202479 236.984416,36.104712 L236.818628,36.104712 C236.529562,36.846426 236.100219,37.4179736 235.530587,37.8193717 C234.960956,38.2207699 234.289311,38.421466 233.515632,38.421466 C232.197828,38.421466 231.126597,37.9109999 230.301906,36.8900524 C229.477216,35.8691048 229.064877,34.5384026 229.064877,32.8979058 C229.064877,31.2923131 229.479342,29.9834257 230.308283,28.9712042 C231.137224,27.9589827 232.20633,27.4528796 233.515632,27.4528796 C234.229797,27.4528796 234.875937,27.6448497 235.45407,28.0287958 C236.032204,28.4127419 236.440292,28.923208 236.678347,29.5602094 L236.844134,29.5602094 L236.844134,27.7146597 L238.323468,27.7146597 L238.323468,35.2408377 C238.323468,35.8691131 238.478627,36.3490385 238.788948,36.6806283 C239.09927,37.0122181 239.543491,37.1780105 240.121624,37.1780105 C240.997326,37.1780105 241.685975,36.6849962 242.187591,35.6989529 C242.689207,34.7129096 242.940011,33.3647555 242.940011,31.6544503 C242.940011,30.0139534 242.56593,28.5545439 241.817757,27.276178 C241.069585,25.9978121 240.019608,25.0052391 238.667796,24.2984293 C237.315984,23.5916195 235.76865,23.2382199 234.025748,23.2382199 C232.741951,23.2382199 231.543192,23.4781826 230.429435,23.9581152 C229.315678,24.4380478 228.363473,25.1012174 227.57279,25.947644 C226.782108,26.7940705 226.161474,27.8128213 225.71087,29.0039267 C225.260266,30.1950321 225.034967,31.4799233 225.034967,32.8586387 C225.034967,35.7469603 225.8809,38.0680541 227.57279,39.8219895 C229.264681,41.575925 231.500663,42.4528796 234.280805,42.4528796 C236.176743,42.4528796 237.588047,42.2609094 238.514761,41.8769634 L238.514761,43.1727749 C237.392502,43.5567209 235.976947,43.7486911 234.268052,43.7486911 C231.05431,43.7486911 228.48038,42.7517552 226.546183,40.7578534 C224.611987,38.7639516 223.644903,36.1134546 223.644903,32.8062827 C223.644903,30.6945793 224.086998,28.8141444 224.971203,27.1649215 C225.855407,25.5156986 227.094549,24.2329889 228.688667,23.3167539 C230.282785,22.400519 232.100052,21.9424084 234.140523,21.9424084 Z M252.563728,27.8979058 C251.313939,27.8979058 250.289468,28.336383 249.490284,29.2133508 C248.691099,30.0903185 248.253255,31.2530469 248.176737,32.7015707 L256.73392,32.7015707 C256.716916,31.2443208 256.327957,30.079411 255.567031,29.2068063 C254.806106,28.3342016 253.805015,27.8979058 252.563728,27.8979058 Z M256.568132,37.2303665 L258.264265,37.2303665 C257.924187,38.3822047 257.252542,39.2897 256.24931,39.9528796 C255.246079,40.6160592 254.026065,40.947644 252.589234,40.947644 C250.701798,40.947644 249.205475,40.2910188 248.10022,38.9777487 C246.994965,37.6644786 246.442345,35.8952991 246.442345,33.6701571 C246.442345,31.4537411 246.99709,29.6845616 248.106596,28.3625654 C249.216102,27.0405693 250.706049,26.3795812 252.576481,26.3795812 C254.404403,26.3795812 255.845464,27.0034842 256.899707,28.2513089 C257.953951,29.4991336 258.481064,31.2006873 258.481064,33.3560209 L258.481064,34.1151832 L248.163984,34.1151832 L248.163984,34.1937173 C248.206494,35.7905839 248.62946,37.0602047 249.432896,38.0026178 C250.236331,38.9450309 251.301186,39.4162304 252.627492,39.4162304 C253.596716,39.4162304 254.421394,39.2264417 255.101551,38.8468586 C255.781708,38.4672756 256.270564,37.9284503 256.568132,37.2303665 Z M266.45966,40.947644 C264.708256,40.947644 263.301202,40.2822929 262.238457,38.9515707 C261.175711,37.6208485 260.644347,35.8603949 260.644347,33.6701571 C260.644347,31.4886453 261.177837,29.7281917 262.244833,28.3887435 C263.311829,27.0492952 264.716758,26.3795812 266.45966,26.3795812 C267.505401,26.3795812 268.440603,26.6457216 269.265294,27.1780105 C270.089984,27.7102993 270.697865,28.4389134 271.088956,29.3638743 L271.24199,29.3638743 L271.24199,21 L272.912617,21 L272.912617,40.7120419 L271.305755,40.7120419 L271.305755,37.8979058 L271.15272,37.8979058 C270.744626,38.8403188 270.121866,39.5842032 269.284423,40.1295812 C268.44698,40.6749591 267.505401,40.947644 266.45966,40.947644 Z M266.816741,27.9240838 C265.456427,27.9240838 264.374568,28.4432758 263.571133,29.4816754 C262.767697,30.520075 262.365985,31.9118586 262.365985,33.6570681 C262.365985,35.4110035 262.767697,36.8049687 263.571133,37.8390052 C264.374568,38.8730418 265.456427,39.3900524 266.816741,39.3900524 C268.168553,39.3900524 269.248286,38.8708603 270.055972,37.8324607 C270.863659,36.7940611 271.267496,35.4022775 271.267496,33.6570681 C271.267496,31.9293107 270.861533,30.5418901 270.049596,29.4947644 C269.237658,28.4476387 268.160051,27.9240838 266.816741,27.9240838 Z M282.013467,39.0366492 C283.382283,39.0366492 284.468392,38.534909 285.271827,37.5314136 C286.075263,36.5279182 286.476975,35.1884901 286.476975,33.513089 C286.476975,31.8289619 286.071012,30.4764449 285.259075,29.4554974 C284.447137,28.4345499 283.365279,27.9240838 282.013467,27.9240838 C280.653153,27.9240838 279.579796,28.4280054 278.793364,29.4358639 C278.006933,30.4437223 277.613723,31.7940579 277.613723,33.486911 C277.613723,35.1710381 278.006933,36.5170107 278.793364,37.5248691 C279.579796,38.5327276 280.653153,39.0366492 282.013467,39.0366492 Z M282.153748,46 C280.589387,46 279.309861,45.6705967 278.315131,45.0117801 C277.320402,44.3529635 276.733775,43.4694645 276.555234,42.3612565 L278.327884,42.3612565 C278.480919,43.0157101 278.897509,43.5349021 279.577666,43.9188482 C280.257823,44.3027942 281.116509,44.4947644 282.153748,44.4947644 C283.480054,44.4947644 284.527906,44.1631796 285.297333,43.5 C286.066761,42.8368204 286.451469,41.9336881 286.451469,40.7905759 L286.451469,37.6230366 L286.285681,37.6230366 C285.877587,38.5567237 285.271831,39.2809747 284.468396,39.7958115 C283.664961,40.3106483 282.736135,40.5680628 281.681892,40.5680628 C279.921985,40.5680628 278.517057,39.9201635 277.467065,38.6243455 C276.417072,37.3285276 275.892084,35.6160665 275.892084,33.486911 C275.892084,31.3577555 276.419198,29.6409315 277.473441,28.3363874 C278.527685,27.0318434 279.930487,26.3795812 281.681892,26.3795812 C282.727633,26.3795812 283.675588,26.6544475 284.525784,27.2041885 C285.37598,27.7539295 285.988112,28.4869064 286.362199,29.4031414 L286.515233,29.4031414 L286.515233,26.6151832 L288.122096,26.6151832 L288.122096,40.921466 C288.122096,42.4572503 287.577979,43.6876045 286.489727,44.6125654 C285.401476,45.5375264 283.956164,46 282.153748,46 Z M297.082664,27.8979058 C295.832875,27.8979058 294.808404,28.336383 294.009219,29.2133508 C293.210035,30.0903185 292.77219,31.2530469 292.695673,32.7015707 L301.252855,32.7015707 C301.235851,31.2443208 300.846893,30.079411 300.085967,29.2068063 C299.325041,28.3342016 298.32395,27.8979058 297.082664,27.8979058 Z M301.087068,37.2303665 L302.783201,37.2303665 C302.443123,38.3822047 301.771478,39.2897 300.768246,39.9528796 C299.765014,40.6160592 298.545001,40.947644 297.108169,40.947644 C295.220734,40.947644 293.724411,40.2910188 292.619155,38.9777487 C291.5139,37.6644786 290.961281,35.8952991 290.961281,33.6701571 C290.961281,31.4537411 291.516026,29.6845616 292.625532,28.3625654 C293.735038,27.0405693 295.224985,26.3795812 297.095416,26.3795812 C298.923338,26.3795812 300.364399,27.0034842 301.418643,28.2513089 C302.472886,29.4991336 303,31.2006873 303,33.3560209 L303,34.1151832 L292.68292,34.1151832 L292.68292,34.1937173 C292.72543,35.7905839 293.148396,37.0602047 293.951831,38.0026178 C294.755267,38.9450309 295.820122,39.4162304 297.146428,39.4162304 C298.115652,39.4162304 298.94033,39.2264417 299.620487,38.8468586 C300.300644,38.4672756 300.789499,37.9284503 301.087068,37.2303665 Z M86.9079999,63.3871303 C86.088475,63.3871303 85.3124214,63.2381956 84.5798158,62.9403217 C83.8472102,62.6424479 83.2201589,62.2380237 82.6986431,61.7270368 C82.1771273,61.21605 81.7636459,60.6045702 81.4581866,59.8925791 C81.1527273,59.180588 81,58.4225953 81,57.6185781 C81,56.5433262 81.2582706,55.5649586 81.7748197,54.6834458 C82.2913687,53.801933 83.0016129,53.1093262 83.9055737,52.6056046 C84.8095345,52.101883 85.8103332,51.8500259 86.9079999,51.8500259 C87.7324916,51.8500259 88.5110285,51.9977498 89.2436341,52.2932019 C89.9762397,52.588654 90.603291,52.9918674 91.1248068,53.5028542 C91.6463227,54.013841 92.0585623,54.6265316 92.3615382,55.3409445 C92.6645141,56.0553573 92.8159997,56.8145609 92.8159997,57.6185781 C92.8159997,58.69383 92.5577291,59.6721976 92.0411801,60.5537104 C91.5246311,61.4352232 90.8143868,62.12783 89.910426,62.6315516 C89.0064653,63.1352732 88.0056665,63.3871303 86.9079999,63.3871303 Z M86.9079999,62.3700052 C87.5884539,62.3700052 88.2291637,62.2477092 88.8301486,62.0031136 C89.4311335,61.7585181 89.9464331,61.4267449 90.3760628,61.0077841 C90.8056926,60.5888234 91.1446728,60.0851093 91.3930136,59.4966269 C91.6413545,58.9081444 91.7655231,58.2821344 91.7655231,57.6185781 C91.7655231,56.7322218 91.5544365,55.925795 91.132257,55.1992735 C90.7100775,54.4727519 90.1277269,53.9024411 89.3851877,53.4883238 C88.6426485,53.0742065 87.8169275,52.867151 86.9079999,52.867151 C86.2275459,52.867151 85.586836,52.989447 84.9858511,53.2340426 C84.3848662,53.4786381 83.8695666,53.8104113 83.4399369,54.2293721 C83.0103072,54.6483328 82.671327,55.1520469 82.4229861,55.7405293 C82.1746452,56.3290118 82.0504766,56.9550218 82.0504766,57.6185781 C82.0504766,58.2821344 82.1758869,58.9069336 82.4267112,59.4929943 C82.6775355,60.079055 83.0177574,60.582769 83.4473871,61.0041515 C83.8770168,61.425534 84.3923164,61.7585181 84.9933013,62.0031136 C85.5942862,62.2477092 86.2325127,62.3700052 86.9079999,62.3700052 Z M89.7241713,56.5869227 L88.688595,56.5869227 C88.5991923,56.2430358 88.4042477,55.9681726 88.1037552,55.7623249 C87.8032627,55.5564771 87.4468989,55.4535547 87.0346531,55.4535547 C86.4585023,55.4535547 86.0003202,55.6472909 85.6600932,56.0347691 C85.3198662,56.4222472 85.1497553,56.9453349 85.1497553,57.6040477 C85.1497553,58.2724476 85.3198662,58.8028003 85.6600932,59.195122 C86.0003202,59.5874436 86.4585023,59.7836015 87.0346531,59.7836015 C87.471733,59.7836015 87.8343053,59.6879442 88.1223807,59.4966269 C88.4104561,59.3053095 88.5991923,59.0352898 88.688595,58.6865594 L89.7241713,58.6865594 C89.6298018,59.2968375 89.340489,59.7823888 88.8562243,60.1432278 C88.3719596,60.5040668 87.7672586,60.6844837 87.0421033,60.6844837 C86.1431093,60.6844837 85.4266566,60.4059879 84.8927237,59.8489881 C84.3587909,59.2919882 84.0918284,58.5436823 84.0918284,57.6040477 C84.0918284,56.6741002 84.3575492,55.9330593 84.8889987,55.380903 C85.4204481,54.8287466 86.1356591,54.5526725 87.0346531,54.5526725 C87.744908,54.5526725 88.3458839,54.7391436 88.8375988,55.1120913 C89.3293138,55.4850391 89.624835,55.9766446 89.7241713,56.5869227 Z M97.2937135,54.6325895 C97.2937135,53.702642 97.6177935,52.9373841 98.2659632,52.3367929 C98.9141329,51.7362018 99.7373705,51.4359107 100.735701,51.4359107 C101.699263,51.4359107 102.507601,51.718039 103.160737,52.2823041 C103.813874,52.8465692 104.140437,53.5452302 104.140437,54.3783083 C104.140437,54.9256211 103.981501,55.463239 103.663625,55.991178 C103.345749,56.519117 102.747256,57.2432059 101.86813,58.1634665 L99.282914,60.8733783 L99.282914,60.9896212 L104.319242,60.9896212 L104.319242,62.1665802 L97.3607652,62.1665802 L97.3607652,61.265698 L101.07841,57.3061754 C101.768797,56.5748104 102.228221,56.0178189 102.456694,55.6351842 C102.685168,55.2525495 102.799403,54.850547 102.799403,54.4291645 C102.799403,53.906069 102.597008,53.4665301 102.192213,53.1105345 C101.787417,52.754539 101.289501,52.5765439 100.69845,52.5765439 C100.067664,52.5765439 99.5585729,52.7654366 99.1711611,53.1432278 C98.7837494,53.521019 98.5900464,54.017468 98.5900464,54.6325895 L98.5900464,54.6398547 L97.2937135,54.6398547 L97.2937135,54.6325895 Z M109.418971,62.4135963 C108.207068,62.4135963 107.268353,61.9340992 106.6028,60.9750908 C105.937246,60.0160824 105.604474,58.6647726 105.604474,56.9211209 C105.604474,55.1919997 105.93973,53.8455333 106.61025,52.8816814 C107.28077,51.9178295 108.217001,51.4359107 109.418971,51.4359107 C110.615974,51.4359107 111.54848,51.9202512 112.216517,52.8889465 C112.884554,53.8576419 113.218568,55.2089517 113.218568,56.9429165 C113.218568,58.6817247 112.887037,60.028191 112.223967,60.982356 C111.560897,61.9365209 110.625908,62.4135963 109.418971,62.4135963 Z M107.586225,60.1468604 C108.013371,60.8975993 108.62428,61.2729632 109.418971,61.2729632 C110.213662,61.2729632 110.820846,60.8988102 111.240542,60.150493 C111.660238,59.4021758 111.870083,58.3257292 111.870083,56.9211209 C111.870083,55.531043 111.657755,54.4606507 111.233092,53.7099118 C110.808429,52.9591729 110.203728,52.583809 109.418971,52.583809 C108.634214,52.583809 108.02703,52.9603837 107.5974,53.7135444 C107.16777,54.466705 106.952959,55.5358865 106.952959,56.9211209 C106.952959,58.3208857 107.164045,59.3961215 107.586225,60.1468604 Z M114.578302,54.6325895 C114.578302,53.702642 114.902382,52.9373841 115.550552,52.3367929 C116.198722,51.7362018 117.021959,51.4359107 118.020289,51.4359107 C118.983852,51.4359107 119.79219,51.718039 120.445326,52.2823041 C121.098463,52.8465692 121.425026,53.5452302 121.425026,54.3783083 C121.425026,54.9256211 121.26609,55.463239 120.948214,55.991178 C120.630337,56.519117 120.031845,57.2432059 119.152718,58.1634665 L116.567503,60.8733783 L116.567503,60.9896212 L121.60383,60.9896212 L121.60383,62.1665802 L114.645354,62.1665802 L114.645354,61.265698 L118.362998,57.3061754 C119.053386,56.5748104 119.51281,56.0178189 119.741283,55.6351842 C119.969757,55.2525495 120.083992,54.850547 120.083992,54.4291645 C120.083992,53.906069 119.881597,53.4665301 119.476801,53.1105345 C119.072006,52.754539 118.57409,52.5765439 117.983039,52.5765439 C117.352253,52.5765439 116.843162,52.7654366 116.45575,53.1432278 C116.068338,53.521019 115.874635,54.017468 115.874635,54.6325895 L115.874635,54.6398547 L114.578302,54.6398547 L114.578302,54.6325895 Z M123.023166,54.6325895 C123.023166,53.702642 123.347246,52.9373841 123.995416,52.3367929 C124.643586,51.7362018 125.466823,51.4359107 126.465154,51.4359107 C127.428716,51.4359107 128.237054,51.718039 128.89019,52.2823041 C129.543327,52.8465692 129.86989,53.5452302 129.86989,54.3783083 C129.86989,54.9256211 129.710954,55.463239 129.393078,55.991178 C129.075202,56.519117 128.476709,57.2432059 127.597583,58.1634665 L125.012367,60.8733783 L125.012367,60.9896212 L130.048695,60.9896212 L130.048695,62.1665802 L123.090218,62.1665802 L123.090218,61.265698 L126.807862,57.3061754 C127.49825,56.5748104 127.957674,56.0178189 128.186147,55.6351842 C128.414621,55.2525495 128.528856,54.850547 128.528856,54.4291645 C128.528856,53.906069 128.326461,53.4665301 127.921666,53.1105345 C127.51687,52.754539 127.018954,52.5765439 126.427903,52.5765439 C125.797117,52.5765439 125.288026,52.7654366 124.900614,53.1432278 C124.513202,53.521019 124.319499,54.017468 124.319499,54.6325895 L124.319499,54.6398547 L123.023166,54.6398547 L123.023166,54.6325895 Z M139.436083,62.1665802 L135.241627,62.1665802 L135.241627,51.6829268 L139.354131,51.6829268 C140.337561,51.6829268 141.113614,51.9178319 141.682315,52.3876492 C142.251016,52.8574665 142.535362,53.4943741 142.535362,54.2983913 C142.535362,54.8408607 142.355317,55.3300445 141.995223,55.7659574 C141.635129,56.2018704 141.196814,56.4658359 140.680265,56.557862 L140.680265,56.6741048 C141.415354,56.7661309 141.998946,57.0409941 142.431059,57.4987026 C142.863172,57.9564112 143.079225,58.5315655 143.079225,59.2241827 C143.079225,60.1492868 142.757629,60.870954 142.114426,61.389206 C141.471223,61.907458 140.578451,62.1665802 139.436083,62.1665802 Z M136.582661,52.8380903 L136.582661,56.2018682 L138.728315,56.2018682 C140.362398,56.2018682 141.179427,55.642455 141.179427,54.5236118 C141.179427,53.9908294 140.994416,53.5767183 140.624388,53.2812662 C140.25436,52.9858141 139.736577,52.8380903 139.071024,52.8380903 L136.582661,52.8380903 Z M136.582661,61.0114167 L139.234928,61.0114167 C140.044519,61.0114167 140.657912,60.8540061 141.075125,60.5391801 C141.492337,60.2243541 141.70094,59.7642307 141.70094,59.1587961 C141.70094,57.9382399 140.836727,57.3279709 139.108275,57.3279709 L136.582661,57.3279709 L136.582661,61.0114167 Z M150.831222,54.3347172 L150.831222,62.1665802 L149.609391,62.1665802 L149.609391,60.9387649 L149.490188,60.9387649 C149.286549,61.3795213 148.973644,61.7173488 148.551464,61.9522574 C148.129285,62.187166 147.612744,62.3046186 147.001825,62.3046186 C146.107798,62.3046186 145.427354,62.0551833 144.960473,61.5563051 C144.493592,61.057427 144.260155,60.3406032 144.260155,59.4058121 L144.260155,54.3347172 L145.541588,54.3347172 L145.541588,59.1006746 C145.541588,59.8126657 145.685624,60.3345425 145.973699,60.6663207 C146.261774,60.9980989 146.723681,61.1639855 147.359434,61.1639855 C148.059755,61.1639855 148.599889,60.9714602 148.97985,60.5864037 C149.359812,60.2013473 149.54979,59.6625186 149.54979,58.9699014 L149.54979,54.3347172 L150.831222,54.3347172 Z M152.503865,62.1665802 L152.503865,54.3347172 L153.785297,54.3347172 L153.785297,62.1665802 L152.503865,62.1665802 Z M153.777847,52.4893617 C153.604008,52.6588834 153.392922,52.743643 153.144581,52.743643 C152.89624,52.743643 152.685154,52.6576725 152.511315,52.4857291 C152.337476,52.3137857 152.250558,52.1091519 152.250558,51.8718215 C152.250558,51.6344911 152.337476,51.4298573 152.511315,51.2579139 C152.685154,51.0859704 152.89624,51 153.144581,51 C153.392922,51 153.604008,51.0859704 153.777847,51.2579139 C153.951686,51.4298573 154.038604,51.6344911 154.038604,51.8718215 C154.038604,52.1091519 153.951686,52.3149965 153.777847,52.4893617 Z M155.532442,62.1665802 L155.532442,51.2252206 L156.813874,51.2252206 L156.813874,62.1665802 L155.532442,62.1665802 Z M159.067631,52.3077322 L160.349064,52.3077322 L160.349064,54.3347172 L162.137109,54.3347172 L162.137109,55.380903 L160.349064,55.380903 L160.349064,59.8126622 C160.349064,60.2727925 160.443432,60.6069874 160.632171,60.8152569 C160.82091,61.0235264 161.123881,61.1276596 161.541094,61.1276596 C161.724866,61.1276596 161.923536,61.1179728 162.137109,61.0985989 L162.137109,62.1520498 C161.854001,62.2004846 161.60318,62.2247016 161.38464,62.2247016 C160.555182,62.2247016 159.961656,62.0624476 159.604045,61.7379346 C159.246434,61.4134217 159.067631,60.8782255 159.067631,60.13233 L159.067631,55.380903 L157.771299,55.380903 L157.771299,54.3347172 L159.067631,54.3347172 L159.067631,52.3077322 Z M170.83163,62.3046186 C170.275346,62.3046186 169.76998,62.1823226 169.315517,61.937727 C168.861053,61.6931315 168.507172,61.3528823 168.253865,60.9169694 L168.134662,60.9169694 L168.134662,62.1665802 L166.912831,62.1665802 L166.912831,51.2252206 L168.194263,51.2252206 L168.194263,55.5697976 L168.313466,55.5697976 C168.532006,55.1484151 168.868503,54.8142202 169.322967,54.5672029 C169.777431,54.3201856 170.280313,54.1966788 170.83163,54.1966788 C171.854794,54.1966788 172.671824,54.5647775 173.282742,55.300986 C173.893661,56.0371945 174.199115,57.0204055 174.199115,58.2506487 C174.199115,59.4760483 173.892419,60.4580485 173.279017,61.1966788 C172.665615,61.935309 171.849828,62.3046186 170.83163,62.3046186 Z M170.533622,55.3227815 C169.8035,55.3227815 169.226116,55.5843254 168.801454,56.1074209 C168.376791,56.6305164 168.164462,57.3449185 168.164462,58.2506487 C168.164462,59.1563789 168.376791,59.870781 168.801454,60.3938765 C169.226116,60.916972 169.8035,61.1785158 170.533622,61.1785158 C171.268711,61.1785158 171.84237,60.9193937 172.254616,60.4011417 C172.666862,59.8828896 172.872982,59.1660658 172.872982,58.2506487 C172.872982,57.3352315 172.666862,56.6184077 172.254616,56.1001557 C171.84237,55.5819037 171.268711,55.3227815 170.533622,55.3227815 Z M175.827057,65 C175.623417,65 175.432198,64.9854698 175.253392,64.9564089 L175.253392,63.8884276 C175.38253,63.912645 175.561332,63.9247535 175.789806,63.9247535 C176.162317,63.9247535 176.45908,63.8278854 176.680103,63.6341463 C176.901127,63.4404073 177.096072,63.1086341 177.264943,62.6388168 L177.413947,62.1738454 L174.441322,54.3347172 L175.827057,54.3347172 L178.032313,60.778931 L178.151516,60.778931 L180.349322,54.3347172 L181.712706,54.3347172 L178.576177,62.646082 C178.233466,63.5518122 177.868411,64.1705571 177.480999,64.5023352 C177.093587,64.8341134 176.542279,65 175.827057,65 Z M187.695358,52.8453555 L187.695358,56.8557343 L190.340175,56.8557343 C191.030563,56.8557343 191.563246,56.6825826 191.938241,56.336274 C192.313235,55.9899654 192.50073,55.4947273 192.50073,54.8505449 C192.50073,54.2208929 192.304544,53.7292874 191.912165,53.3757135 C191.519786,53.0221397 190.975928,52.8453555 190.280574,52.8453555 L187.695358,52.8453555 Z M187.695358,58.0181629 L187.695358,62.1665802 L186.354324,62.1665802 L186.354324,51.6829268 L190.459378,51.6829268 C191.497443,51.6829268 192.328131,51.9674768 192.951466,52.5365854 C193.574802,53.1056939 193.886465,53.8624758 193.886465,54.8069538 C193.886465,55.5383188 193.695246,56.1703831 193.312801,56.7031655 C192.930356,57.235948 192.401398,57.6064684 191.72591,57.8147379 L194.214273,62.1665802 L192.642284,62.1665802 L190.340175,58.0181629 L187.695358,58.0181629 Z M201.884318,54.3347172 L201.884318,62.1665802 L200.662487,62.1665802 L200.662487,60.9387649 L200.543284,60.9387649 C200.339645,61.3795213 200.02674,61.7173488 199.60456,61.9522574 C199.182381,62.187166 198.66584,62.3046186 198.054921,62.3046186 C197.160894,62.3046186 196.48045,62.0551833 196.013569,61.5563051 C195.546688,61.057427 195.313251,60.3406032 195.313251,59.4058121 L195.313251,54.3347172 L196.594684,54.3347172 L196.594684,59.1006746 C196.594684,59.8126657 196.738719,60.3345425 197.026795,60.6663207 C197.31487,60.9980989 197.776777,61.1639855 198.41253,61.1639855 C199.112851,61.1639855 199.652985,60.9714602 200.032946,60.5864037 C200.412908,60.2013473 200.602886,59.6625186 200.602886,58.9699014 L200.602886,54.3347172 L201.884318,54.3347172 Z M206.499785,62.3046186 C205.471654,62.3046186 204.652141,61.9365199 204.041223,61.2003114 C203.430304,60.4641029 203.12485,59.4808918 203.12485,58.2506487 C203.12485,57.025249 203.431546,56.0432488 204.044948,55.3046186 C204.65835,54.5659883 205.476621,54.1966788 206.499785,54.1966788 C207.061036,54.1966788 207.563918,54.3189747 208.008449,54.5635703 C208.452979,54.8081659 208.789476,55.1435716 209.017949,55.5697976 L209.129702,55.5697976 L209.129702,51.2252206 L210.411135,51.2252206 L210.411135,62.1665802 L209.189304,62.1665802 L209.189304,60.9169694 L209.0701,60.9169694 C208.816793,61.3528823 208.464154,61.6931315 208.012174,61.937727 C207.560193,62.1823226 207.056069,62.3046186 206.499785,62.3046186 Z M206.797793,55.3227815 C206.067671,55.3227815 205.494012,55.5831145 205.076799,56.1037883 C204.659587,56.624462 204.450983,57.340075 204.450983,58.2506487 C204.450983,59.1660658 204.658345,59.8828896 205.073074,60.4011417 C205.487803,60.9193937 206.062704,61.1785158 206.797793,61.1785158 C207.527915,61.1785158 208.104057,60.916972 208.526237,60.3938765 C208.948416,59.870781 209.159503,59.1563789 209.159503,58.2506487 C209.159503,57.3546054 208.947174,56.642625 208.522512,56.114686 C208.097849,55.5867471 207.522948,55.3227815 206.797793,55.3227815 Z M212.158279,62.1665802 L212.158279,54.3347172 L213.439711,54.3347172 L213.439711,62.1665802 L212.158279,62.1665802 Z M213.432261,52.4893617 C213.258423,52.6588834 213.047336,52.743643 212.798995,52.743643 C212.550654,52.743643 212.339568,52.6576725 212.165729,52.4857291 C211.991891,52.3137857 211.904972,52.1091519 211.904972,51.8718215 C211.904972,51.6344911 211.991891,51.4298573 212.165729,51.2579139 C212.339568,51.0859704 212.550654,51 212.798995,51 C213.047336,51 213.258423,51.0859704 213.432261,51.2579139 C213.6061,51.4298573 213.693018,51.6344911 213.693018,51.8718215 C213.693018,52.1091519 213.6061,52.3149965 213.432261,52.4893617 Z M217.958326,59.2096523 L217.839123,59.2096523 L215.931875,62.1665802 L214.479088,62.1665802 L217.228208,58.2506487 L214.449287,54.3347172 L215.976576,54.3347172 L217.883824,57.248054 L218.003027,57.248054 L219.887925,54.3347172 L221.340712,54.3347172 L218.613943,58.1997924 L221.377963,62.1665802 L219.858124,62.1665802 L217.958326,59.2096523 Z M226.894903,51.4359107 C228.419716,51.4359107 229.620426,51.9287271 230.497069,52.9143747 C231.373713,53.9000222 231.812028,55.2355909 231.812028,56.9211209 C231.812028,58.6066509 231.373713,59.9434305 230.497069,60.9314997 C229.620426,61.919569 228.419716,62.4135963 226.894903,62.4135963 C225.360156,62.4135963 224.153238,61.919569 223.274111,60.9314997 C222.394984,59.9434305 221.955428,58.6066509 221.955428,56.9211209 C221.955428,55.2355909 222.398709,53.9000222 223.285286,52.9143747 C224.171863,51.9287271 225.375057,51.4359107 226.894903,51.4359107 Z M226.894903,52.6419305 C225.802203,52.6419305 224.935506,53.0269811 224.294787,53.7970939 C223.654068,54.5672068 223.333713,55.6085387 223.333713,56.9211209 C223.333713,58.2337032 223.650342,59.2762459 224.283612,60.0487805 C224.916881,60.8213151 225.787303,61.2075765 226.894903,61.2075765 C227.99257,61.2075765 228.856783,60.8201042 229.487569,60.0451479 C230.118355,59.2701916 230.433743,58.2288597 230.433743,56.9211209 C230.433743,55.6036952 230.118355,54.5611524 229.487569,53.7934613 C228.856783,53.0257702 227.99257,52.6419305 226.894903,52.6419305 Z M237.112912,54.1966788 C238.136077,54.1966788 238.954348,54.5647775 239.56775,55.300986 C240.181151,56.0371945 240.487848,57.0204055 240.487848,58.2506487 C240.487848,59.4760483 240.17991,60.4580485 239.564024,61.1966788 C238.948139,61.935309 238.13111,62.3046186 237.112912,62.3046186 C236.541728,62.3046186 236.03512,62.1895877 235.593074,61.9595226 C235.151027,61.7294574 234.820739,61.4061602 234.602199,60.9896212 L234.482996,60.9896212 L234.482996,64.7820446 L233.201563,64.7820446 L233.201563,54.3347172 L234.423394,54.3347172 L234.423394,55.6424494 L234.542597,55.6424494 C234.800872,55.1920061 235.157235,54.8384375 235.611699,54.5817333 C236.066163,54.325029 236.566562,54.1966788 237.112912,54.1966788 Z M236.807454,61.1785158 C237.542543,61.1785158 238.118686,60.9193937 238.535898,60.4011417 C238.953111,59.8828896 239.161714,59.1660658 239.161714,58.2506487 C239.161714,57.3352315 238.954353,56.6184077 238.539623,56.1001557 C238.124894,55.5819037 237.549994,55.3227815 236.814905,55.3227815 C236.089749,55.3227815 235.513607,55.5855362 235.086461,56.1110535 C234.659315,56.6365707 234.445745,57.349762 234.445745,58.2506487 C234.445745,59.1466919 234.658073,59.8586723 235.082736,60.3866113 C235.507399,60.9145503 236.082299,61.1785158 236.807454,61.1785158 Z M241.542125,56.477945 C241.542125,55.8289191 241.827712,55.2864578 242.398896,54.8505449 C242.97008,54.414632 243.682808,54.1966788 244.537101,54.1966788 C245.376493,54.1966788 246.069353,54.3855715 246.615703,54.7633627 C247.162053,55.1411539 247.477441,55.6521331 247.561877,56.2963155 L246.295345,56.2963155 C246.205943,55.976646 246.008515,55.7235782 245.703055,55.5371043 C245.397596,55.3506304 245.006465,55.2573949 244.52965,55.2573949 C244.047869,55.2573949 243.644321,55.3663715 243.318995,55.584328 C242.993668,55.8022844 242.831007,56.0832019 242.831007,56.4270887 C242.831007,56.69348 242.944001,56.9150657 243.169991,57.0918526 C243.395981,57.2686395 243.747378,57.4127308 244.224193,57.5241308 L245.460924,57.8147379 C246.225814,57.9939466 246.790781,58.2530687 247.155842,58.5921121 C247.520903,58.9311555 247.703431,59.3791704 247.703431,59.9361702 C247.703431,60.6287874 247.397976,61.1966766 246.787058,61.6398547 C246.176139,62.0830328 245.408777,62.3046186 244.484949,62.3046186 C243.590922,62.3046186 242.858328,62.1108824 242.287144,61.7234043 C241.71596,61.3359261 241.395605,60.8176818 241.326069,60.1686559 L242.644753,60.1686559 C242.754023,60.5076993 242.970076,60.7728757 243.292919,60.964193 C243.615762,61.1555104 244.028002,61.2511676 244.52965,61.2511676 C245.071034,61.2511676 245.515557,61.1373476 245.863234,60.9097042 C246.210912,60.6820608 246.384748,60.3890348 246.384748,60.0306175 C246.384748,59.4978351 245.960091,59.1297364 245.110765,58.9263103 L243.73248,58.5993773 C242.972557,58.4201686 242.417524,58.1622573 242.067363,57.8256357 C241.717202,57.4890141 241.542125,57.0397883 241.542125,56.477945 Z M262.581609,54.3347172 L260.331652,62.1665802 L259.027868,62.1665802 L257.232373,56.1074209 L257.11317,56.1074209 L255.325125,62.1665802 L254.028792,62.1665802 L251.778835,54.3347172 L253.075167,54.3347172 L254.654608,60.5973015 L254.773811,60.5973015 L256.569306,54.3347172 L257.798587,54.3347172 L259.594083,60.5973015 L259.713286,60.5973015 L261.292726,54.3347172 L262.581609,54.3347172 Z M263.553933,62.1665802 L263.553933,54.3347172 L264.835366,54.3347172 L264.835366,62.1665802 L263.553933,62.1665802 Z M264.827916,52.4893617 C264.654077,52.6588834 264.44299,52.743643 264.19465,52.743643 C263.946309,52.743643 263.735222,52.6576725 263.561384,52.4857291 C263.387545,52.3137857 263.300627,52.1091519 263.300627,51.8718215 C263.300627,51.6344911 263.387545,51.4298573 263.561384,51.2579139 C263.735222,51.0859704 263.946309,51 264.19465,51 C264.44299,51 264.654077,51.0859704 264.827916,51.2579139 C265.001754,51.4298573 265.088672,51.6344911 265.088672,51.8718215 C265.088672,52.1091519 265.001754,52.3149965 264.827916,52.4893617 Z M267.044422,52.3077322 L268.325854,52.3077322 L268.325854,54.3347172 L270.1139,54.3347172 L270.1139,55.380903 L268.325854,55.380903 L268.325854,59.8126622 C268.325854,60.2727925 268.420223,60.6069874 268.608962,60.8152569 C268.797701,61.0235264 269.100672,61.1276596 269.517885,61.1276596 C269.701657,61.1276596 269.900327,61.1179728 270.1139,61.0985989 L270.1139,62.1520498 C269.830791,62.2004846 269.579971,62.2247016 269.361431,62.2247016 C268.531972,62.2247016 267.938446,62.0624476 267.580836,61.7379346 C267.223225,61.4134217 267.044422,60.8782255 267.044422,60.13233 L267.044422,55.380903 L265.748089,55.380903 L265.748089,54.3347172 L267.044422,54.3347172 L267.044422,52.3077322 Z M271.354431,62.1665802 L271.354431,51.2252206 L272.635864,51.2252206 L272.635864,55.5697976 L272.755067,55.5697976 C272.958706,55.1290412 273.27037,54.7900029 273.690066,54.5526725 C274.109762,54.3153422 274.622578,54.1966788 275.22853,54.1966788 C276.082822,54.1966788 276.758299,54.4521683 277.254981,54.9631552 C277.751663,55.474142 278,56.1849116 278,57.0954852 L278,62.1665802 L276.718567,62.1665802 L276.718567,57.4006227 C276.718567,56.0153883 276.100208,55.3227815 274.86347,55.3227815 C274.158182,55.3227815 273.610599,55.522572 273.220704,55.9221588 C272.830809,56.3217456 272.635864,56.8581527 272.635864,57.531396 L272.635864,62.1665802 L271.354431,62.1665802 Z M45.1639473,28.1879883 C45.7645363,28.1879883 46.2464651,28.4113747 46.6097481,28.8581543 C46.9730312,29.3049339 47.15467,29.8959924 47.15467,30.6313477 C47.15467,31.3667029 46.9722988,31.9584939 46.6075509,32.4067383 C46.2428029,32.8549827 45.7616066,33.0791016 45.1639473,33.0791016 C44.7977346,33.0791016 44.4732749,32.9919442 44.1905587,32.817627 C43.9078424,32.6433097 43.7005691,32.4038101 43.5687325,32.0991211 L43.5159981,32.0991211 L43.5159981,34.5688477 L42.9403145,34.5688477 L42.9403145,28.2670898 L43.4896309,28.2670898 L43.4896309,29.2338867 L43.5423653,29.2338867 C43.6888504,28.9086898 43.9056451,28.6530771 44.1927559,28.467041 C44.4798667,28.2810049 44.803594,28.1879883 45.1639473,28.1879883 Z M45.0365059,32.5561523 C45.5052583,32.5561523 45.8765925,32.3833025 46.1505196,32.0375977 C46.4244468,31.6918928 46.5614083,31.2246123 46.5614083,30.6357422 C46.5614083,30.0439424 46.4244468,29.5744646 46.1505196,29.2272949 C45.8765925,28.8801252 45.5067231,28.706543 45.0409005,28.706543 C44.5780075,28.706543 44.2052085,28.8823225 43.9224923,29.2338867 C43.639776,29.585451 43.49842,30.0512666 43.49842,30.6313477 C43.49842,31.2114287 43.6390436,31.6772443 43.920295,32.0288086 C44.2015464,32.3803729 44.573613,32.5561523 45.0365059,32.5561523 Z M51.0873036,32.4243164 C50.700583,32.860842 50.1761741,33.0791016 49.5140615,33.0791016 C48.8519488,33.0791016 48.3282724,32.8601096 47.9430165,32.4221191 C47.5577607,31.9841287 47.3651357,31.3872108 47.3651357,30.6313477 C47.3651357,29.8754845 47.5577607,29.2792991 47.9430165,28.8427734 C48.3282724,28.4062478 48.8519488,28.1879883 49.5140615,28.1879883 C50.1761741,28.1879883 50.700583,28.4062478 51.0873036,28.8427734 C51.4740243,29.2792991 51.6673818,29.8754845 51.6673818,30.6313477 C51.6673818,31.3872108 51.4740243,31.9848611 51.0873036,32.4243164 Z M48.3714833,32.0463867 C48.6468753,32.3862322 49.0277309,32.5561523 49.5140615,32.5561523 C50.000392,32.5561523 50.3812476,32.3854998 50.6566396,32.0441895 C50.9320316,31.7028792 51.0697255,31.2319366 51.0697255,30.6313477 C51.0697255,30.0307587 50.9320316,29.5598162 50.6566396,29.2185059 C50.3812476,28.8771956 50.000392,28.706543 49.5140615,28.706543 C49.0277309,28.706543 48.6468753,28.8771956 48.3714833,29.2185059 C48.0960913,29.5598162 47.9583974,30.0307587 47.9583974,30.6313477 C47.9583974,31.2319366 48.0960913,31.7036116 48.3714833,32.0463867 Z M57.797281,28.2670898 L56.4481599,33 L55.8373201,33 L54.6727693,29.0712891 L54.6156404,29.0712891 L53.4510896,33 L52.8446443,33 L51.5043123,28.2670898 L52.0887849,28.2670898 L53.1390779,32.2836914 L53.1918123,32.2836914 L54.3607576,28.2670898 L54.9364412,28.2670898 L56.1053865,32.2836914 L56.1581209,32.2836914 L57.2172029,28.2670898 L57.797281,28.2670898 Z M59.7479811,28.6977539 C59.3173149,28.6977539 58.964291,28.8449692 58.688899,29.1394043 C58.413507,29.4338394 58.2626296,29.8242163 58.2362623,30.3105469 L61.1849928,30.3105469 C61.1791334,29.8212866 61.0451015,29.4301772 60.7828932,29.137207 C60.5206848,28.8442368 60.1757176,28.6977539 59.7479811,28.6977539 Z M61.1278639,31.8310547 L61.7123365,31.8310547 C61.5951485,32.2177754 61.3637055,32.5224598 61.0180006,32.7451172 C60.6722957,32.9677746 60.2518898,33.0791016 59.7567701,33.0791016 C59.1063763,33.0791016 58.5907564,32.8586448 58.2098951,32.4177246 C57.8290339,31.9768044 57.6386061,31.3828162 57.6386061,30.6357422 C57.6386061,29.8915978 57.8297663,29.2976096 58.2120924,28.8537598 C58.5944185,28.4099099 59.1078411,28.1879883 59.7523756,28.1879883 C60.3822616,28.1879883 60.8788386,28.3974588 61.2421217,28.8164062 C61.6054048,29.2353537 61.7870436,29.806637 61.7870436,30.5302734 L61.7870436,30.7851562 L58.2318678,30.7851562 L58.2318678,30.8115234 C58.2465163,31.3476589 58.3922668,31.7739242 58.6691236,32.090332 C58.9459805,32.4067399 59.3129202,32.5649414 59.7699537,32.5649414 C60.1039398,32.5649414 60.3881166,32.5012213 60.6224928,32.3737793 C60.856869,32.2463373 61.0253243,32.0654309 61.1278639,31.8310547 Z M62.2392085,33 L62.2392085,28.2670898 L62.7885249,28.2670898 L62.7885249,29.0449219 L62.8456538,29.0449219 C62.9247557,28.7871081 63.0858869,28.5798348 63.3290522,28.4230957 C63.5722175,28.2663566 63.850535,28.1879883 64.1640131,28.1879883 C64.3515141,28.1879883 64.4994618,28.2011717 64.6078608,28.2275391 L64.6078608,28.8032227 C64.4760242,28.7651365 64.3046392,28.7460938 64.0937006,28.7460938 C63.7274879,28.7460938 63.4228034,28.8698718 63.1796381,29.1174316 C62.9364729,29.3649915 62.8148921,29.6748028 62.8148921,30.046875 L62.8148921,33 L62.2392085,33 Z M66.5277991,28.6977539 C66.0971329,28.6977539 65.7441091,28.8449692 65.4687171,29.1394043 C65.1933251,29.4338394 65.0424477,29.8242163 65.0160804,30.3105469 L67.9648108,30.3105469 C67.9589514,29.8212866 67.8249196,29.4301772 67.5627112,29.137207 C67.3005029,28.8442368 66.9555356,28.6977539 66.5277991,28.6977539 Z M67.9076819,31.8310547 L68.4921546,31.8310547 C68.3749665,32.2177754 68.1435235,32.5224598 67.7978187,32.7451172 C67.4521138,32.9677746 67.0317079,33.0791016 66.5365882,33.0791016 C65.8861943,33.0791016 65.3705745,32.8586448 64.9897132,32.4177246 C64.6088519,31.9768044 64.4184241,31.3828162 64.4184241,30.6357422 C64.4184241,29.8915978 64.6095843,29.2976096 64.9919105,28.8537598 C65.3742366,28.4099099 65.8876592,28.1879883 66.5321937,28.1879883 C67.1620796,28.1879883 67.6586567,28.3974588 68.0219398,28.8164062 C68.3852228,29.2353537 68.5668616,29.806637 68.5668616,30.5302734 L68.5668616,30.7851562 L65.0116858,30.7851562 L65.0116858,30.8115234 C65.0263344,31.3476589 65.1720849,31.7739242 65.4489417,32.090332 C65.7257986,32.4067399 66.0927383,32.5649414 66.5497718,32.5649414 C66.8837578,32.5649414 67.1679347,32.5012213 67.4023108,32.3737793 C67.636687,32.2463373 67.8051424,32.0654309 67.9076819,31.8310547 Z M70.7856281,33.0791016 C70.1821094,33.0791016 69.697251,32.8557151 69.3310382,32.4089355 C68.9648255,31.962156 68.7817218,31.3710974 68.7817218,30.6357422 C68.7817218,29.9033167 68.9655579,29.3122581 69.3332355,28.8625488 C69.7009131,28.4128395 70.1850391,28.1879883 70.7856281,28.1879883 C71.1459814,28.1879883 71.4682438,28.2773429 71.752425,28.4560547 C72.0366061,28.6347665 72.2460766,28.879393 72.3808429,29.1899414 L72.4335773,29.1899414 L72.4335773,26.3818359 L73.0092609,26.3818359 L73.0092609,33 L72.45555,33 L72.45555,32.0551758 L72.4028156,32.0551758 C72.2621899,32.3715836 72.0475924,32.621337 71.7590168,32.8044434 C71.4704411,32.9875497 71.1459814,33.0791016 70.7856281,33.0791016 Z M70.908675,28.706543 C70.4399226,28.706543 70.0671236,28.8808576 69.7902668,29.2294922 C69.5134099,29.5781267 69.3749835,30.0454072 69.3749835,30.6313477 C69.3749835,31.2202178 69.5134099,31.6882307 69.7902668,32.0354004 C70.0671236,32.3825701 70.4399226,32.5561523 70.908675,32.5561523 C71.3744976,32.5561523 71.7465642,32.3818377 72.0248859,32.0332031 C72.3032076,31.6845686 72.4423664,31.2172881 72.4423664,30.6313477 C72.4423664,30.0512666 72.3024752,29.585451 72.0226886,29.2338867 C71.7429021,28.8823225 71.3715679,28.706543 70.908675,28.706543 Z M67.5209632,40.0791016 C67.1576801,40.0791016 66.8324881,39.9882822 66.5453773,39.8066406 C66.2582664,39.6249991 66.0444014,39.3745133 65.9037757,39.0551758 L65.8466468,39.0551758 L65.8466468,40 L65.2973304,40 L65.2973304,33.3818359 L65.873014,33.3818359 L65.873014,36.1855469 L65.9257483,36.1855469 C66.0575849,35.8779281 66.2670555,35.6347665 66.5541663,35.4560547 C66.8412771,35.2773429 67.1635395,35.1879883 67.5209632,35.1879883 C68.1215521,35.1879883 68.6034809,35.4106423 68.966764,35.855957 C69.330047,36.3012718 69.5116858,36.8930627 69.5116858,37.6313477 C69.5116858,38.3667029 69.3293146,38.9584939 68.9645667,39.4067383 C68.5998188,39.8549827 68.1186224,40.0791016 67.5209632,40.0791016 Z M68.5097327,36.2250977 C68.2372704,35.8793928 67.8681335,35.706543 67.4023108,35.706543 C66.9364882,35.706543 66.5629568,35.88159 66.2817054,36.2316895 C66.000454,36.5817889 65.8598304,37.0483369 65.8598304,37.6313477 C65.8598304,38.2143584 66.000454,38.6809065 66.2817054,39.0310059 C66.5629568,39.3811053 66.9364882,39.5561523 67.4023108,39.5561523 C67.8681335,39.5561523 68.2372704,39.3825701 68.5097327,39.0354004 C68.782195,38.6882307 68.9184241,38.218753 68.9184241,37.6269531 C68.9184241,37.038083 68.782195,36.5708025 68.5097327,36.2250977 Z M70.1308429,41.6743164 C70.051741,41.6743164 69.9623864,41.6684571 69.8627765,41.6567383 L69.8627765,41.1557617 C69.9213706,41.1674805 70.0077955,41.1733398 70.1220539,41.1733398 C70.3388518,41.1733398 70.5146313,41.1103522 70.6493976,40.984375 C70.7841639,40.8583978 70.9101392,40.6386734 71.0273273,40.3251953 L71.124007,40.0307617 L69.3486164,35.2670898 L69.9726398,35.2670898 L71.405257,39.371582 L71.4579914,39.371582 L72.886214,35.2670898 L73.5014484,35.2670898 L71.6601398,40.2285156 C71.4492012,40.7968778 71.2382659,41.1799307 71.0273273,41.3776855 C70.8163887,41.5754404 70.5175636,41.6743164 70.1308429,41.6743164 Z M301.520943,52.4777478 C301.414077,52.5632563 299.527331,53.659666 299.527331,56.0976098 C299.527331,58.9174917 301.928142,59.9150915 302,59.939794 C301.988945,60.0006001 301.618597,61.3060306 300.734185,62.6361636 C299.945584,63.8066807 299.121975,64.9752975 297.869058,64.9752975 C296.616141,64.9752975 296.293699,64.2247225 294.847316,64.2247225 C293.437784,64.2247225 292.936617,65 291.790566,65 C290.644515,65 289.844859,63.9168917 288.925439,62.5867587 C287.860459,61.0248025 287,58.5982598 287,56.2952295 C287,52.6012601 289.328952,50.6421642 291.621054,50.6421642 C292.838963,50.6421642 293.854195,51.4668467 294.618843,51.4668467 C295.34664,51.4668467 296.481636,50.5927593 297.867215,50.5927593 C298.392335,50.5927593 300.279081,50.6421642 301.520943,52.4777478 Z M297.209434,49.0289029 C296.6014,49.8060806 295.549318,50.3837384 294.712812,50.3837384 C294.617,50.3837384 294.521189,50.370437 294.462228,50.3590359 C294.451173,50.3115312 294.42722,50.1633163 294.42722,50.0151015 C294.42722,49.0289029 294.917332,48.0560056 295.442452,47.440344 C296.111289,46.640364 297.220489,46.0361036 298.152807,46 C298.17676,46.110211 298.187815,46.2470247 298.187815,46.3819382 C298.187815,47.3548355 297.782459,48.3277328 297.209434,49.0289029 Z" id="path-2"></path>
        <filter x="-1.5%" y="-4.5%" width="103.1%" height="118.2%" filterUnits="objectBoundingBox" id="filter-3">
            <feGaussianBlur stdDeviation="0" in="SourceGraphic"></feGaussianBlur>
        </filter>
        <filter x="-2.7%" y="-11.4%" width="105.4%" height="131.8%" filterUnits="objectBoundingBox" id="filter-4">
            <feOffset dx="0" dy="2" in="SourceAlpha" result="shadowOffsetOuter1"></feOffset>
            <feGaussianBlur stdDeviation="2" in="shadowOffsetOuter1" result="shadowBlurOuter1"></feGaussianBlur>
            <feColorMatrix values="0 0 0 0 0   0 0 0 0 0   0 0 0 0 0  0 0 0 0.5 0" type="matrix" in="shadowBlurOuter1"></feColorMatrix>
        </filter>
    </defs>
    <g id="Page-1" stroke="none" stroke-width="1" fill="none" fill-rule="evenodd">
        <g id="Artboard" transform="translate(-39.000000, -19.000000)">
            <g id="powered-by" filter="url(#filter-3)">
                <use fill="black" fill-opacity="1" filter="url(#filter-4)" xlink:href="#path-2"></use>
                <use fill="url(#linearGradient-1)" fill-rule="evenodd" xlink:href="#path-2"></use>
            </g>
        </g>
    </g>
</svg>